<svg width="49" height="50" viewBox="0 0 49 50" fill="none" xmlns="http://www.w3.org/2000/svg">
<path fill-rule="evenodd" clip-rule="evenodd" d="M1.02512 1.04604C2.39197 -0.348679 4.60804 -0.348679 5.97489 1.04604L24.5 19.9493L43.0252 1.04604C44.392 -0.348679 46.6082 -0.348679 47.9749 1.04604C49.3417 2.44079 49.3417 4.70208 47.9749 6.09683L29.4498 25L47.9749 43.9033C49.3417 45.2979 49.3417 47.5594 47.9749 48.954C46.6082 50.3487 44.392 50.3487 43.0252 48.954L24.5 30.0508L5.97489 48.954C4.60804 50.3487 2.39197 50.3487 1.02512 48.954C-0.341706 47.5594 -0.341706 45.2979 1.02512 43.9033L19.5503 25L1.02512 6.09683C-0.341706 4.70208 -0.341706 2.44079 1.02512 1.04604Z" fill="#F1FAEE"/>
</svg>
