<svg width="18" height="18" viewBox="0 0 18 18" fill="none" xmlns="http://www.w3.org/2000/svg">
<path d="M13.6957 17.4442C11.709 16.3193 7.73579 14.1599 1.77592 10.966L1.29431 10.6948C0.953176 10.4538 0.672239 10.2127 0.451504 9.97166C0.1505 9.63017 -1.46046e-06 9.30877 -1.43412e-06 9.00746C-1.39724e-06 8.58562 0.290969 8.1236 0.872908 7.62141C1.17391 7.38036 1.47492 7.18953 1.77592 7.04892L6.62207 4.42749C10.0936 2.55934 12.4515 1.27374 13.6957 0.570671C14.5786 0.0684819 15.3913 -0.102263 16.1338 0.0584382C16.6555 0.178964 17.1271 0.46019 17.5485 0.902117C17.7492 1.12308 17.8997 1.32396 18 1.50474L18 16.5102L17.8194 16.7512C17.6789 16.9722 17.5184 17.163 17.3378 17.3237C17.0769 17.5447 16.796 17.7154 16.495 17.836C16.1137 17.9766 15.7124 18.0268 15.291 17.9866C14.7893 17.9263 14.2575 17.7456 13.6957 17.4442Z" fill="#F1FAEE"/>
</svg>
