<svg width="34" height="34" viewBox="0 0 34 34" fill="none" xmlns="http://www.w3.org/2000/svg">
<path fill-rule="evenodd" clip-rule="evenodd" d="M17.0924 0.599976C26.0991 0.599976 33.4001 8.08509 33.4001 17.3201C33.4001 24.7059 28.7328 30.9714 22.257 33.1843C21.4302 33.349 21.1367 32.8269 21.1367 32.3817C21.1367 31.8305 21.1562 30.0301 21.1562 27.7927C21.1562 26.2337 20.6344 25.2162 20.0489 24.6976C23.6807 24.2834 27.4967 22.8694 27.4967 16.4474C27.4967 14.621 26.8639 13.1305 25.817 11.9596C25.9866 11.5373 26.5459 9.83658 25.6572 7.53393C25.6572 7.53393 24.2906 7.08591 21.1774 9.24831C19.8744 8.87812 18.4785 8.69187 17.0924 8.68534C15.7062 8.69187 14.3119 8.87812 13.0105 9.24831C9.89415 7.08591 8.5243 7.53393 8.5243 7.53393C7.63879 9.83658 8.19815 11.5373 8.36612 11.9596C7.32406 13.1305 6.68643 14.621 6.68643 16.4474C6.68643 22.8531 10.4943 24.2888 14.1162 24.7112C13.6498 25.1286 13.2274 25.8651 13.0807 26.9463C12.1511 27.3736 9.78977 28.113 8.33512 25.5576C8.33512 25.5576 7.47245 23.9511 5.83516 23.8337C5.83516 23.8337 4.24516 23.8125 5.72427 24.8497C5.72427 24.8497 6.79242 25.3634 7.53442 27.2959C7.53442 27.2959 8.49169 30.2801 13.0285 29.269C13.0366 30.6666 13.0513 31.9838 13.0513 32.3817C13.0513 32.8236 12.7512 33.3408 11.9375 33.1859C5.45682 30.9762 0.784668 24.7075 0.784668 17.3201C0.784668 8.08509 8.08725 0.599976 17.0924 0.599976Z" fill="#0F1108"/>
</svg>
