<svg width="35" height="35" viewBox="0 0 35 35" fill="none" xmlns="http://www.w3.org/2000/svg">
<path fill-rule="evenodd" clip-rule="evenodd" d="M17.5 0C27.1653 0 35 8.03238 35 17.9426C35 25.8684 29.9915 32.5919 23.0423 34.9667C22.155 35.1434 21.84 34.5831 21.84 34.1054C21.84 33.5139 21.861 31.5819 21.861 29.1809C21.861 27.5079 21.301 26.416 20.6728 25.8595C24.57 25.415 28.665 23.8976 28.665 17.0061C28.665 15.0461 27.986 13.4467 26.8625 12.1902C27.0445 11.7369 27.6448 9.91192 26.691 7.44092C26.691 7.44092 25.2245 6.96014 21.8838 9.28065C20.4855 8.8834 18.9875 8.68352 17.5 8.67652C16.0125 8.68352 14.5163 8.8834 13.1198 9.28065C9.77551 6.96014 8.30551 7.44092 8.30551 7.44092C7.35526 9.91192 7.95551 11.7369 8.13576 12.1902C7.01751 13.4467 6.33326 15.0461 6.33326 17.0061C6.33326 23.8801 10.4195 25.4208 14.3063 25.874C13.8058 26.322 13.3525 27.1124 13.195 28.2726C12.1975 28.7311 9.6635 29.5246 8.1025 26.7824C8.1025 26.7824 7.17676 25.0584 5.41975 24.9324C5.41975 24.9324 3.7135 24.9097 5.30075 26.0227C5.30075 26.0227 6.447 26.574 7.24325 28.6477C7.24325 28.6477 8.27051 31.8502 13.139 30.7652C13.1478 32.2649 13.1635 33.6784 13.1635 34.1054C13.1635 34.5796 12.8415 35.1347 11.9683 34.9684C5.01375 32.5972 0 25.8701 0 17.9426C0 8.03238 7.83651 0 17.5 0Z" fill="#587C71"/>
</svg>
