<svg width="37" height="37" viewBox="0 0 37 37" fill="none" xmlns="http://www.w3.org/2000/svg">
<path d="M26.5938 0H10.4062C4.625 0 0 4.625 0 10.4062V26.5938C0 32.375 4.625 37 10.4062 37H26.5938C32.375 37 37 32.375 37 26.5938V10.4062C37 4.625 32.375 0 26.5938 0Z" fill="#587C71"/>
<path d="M13.875 28.9062C13.875 29.6 13.4125 30.0625 12.7188 30.0625H8.09375C7.4 30.0625 6.9375 29.6 6.9375 28.9062V15.0312C6.9375 14.3375 7.4 13.875 8.09375 13.875H12.7188C13.4125 13.875 13.875 14.3375 13.875 15.0312V28.9062ZM10.4062 12.7188C8.44062 12.7188 6.9375 11.2156 6.9375 9.25C6.9375 7.28437 8.44062 5.78125 10.4062 5.78125C12.3719 5.78125 13.875 7.28437 13.875 9.25C13.875 11.2156 12.3719 12.7188 10.4062 12.7188ZM30.0625 28.9062C30.0625 29.6 29.6 30.0625 28.9062 30.0625H25.4375C24.7437 30.0625 24.2812 29.6 24.2812 28.9062V24.8594V23.7031V21.3906C24.2812 20.4656 23.4719 19.6562 22.5469 19.6562C21.6219 19.6562 20.8125 20.4656 20.8125 21.3906V23.7031V24.8594V28.9062C20.8125 29.6 20.35 30.0625 19.6562 30.0625H16.1875C15.4937 30.0625 15.0312 29.6 15.0312 28.9062V15.0312C15.0312 14.3375 15.4937 13.875 16.1875 13.875H20.8125C21.1594 13.875 21.3906 13.9906 21.6219 14.2219C22.3156 13.9906 23.0094 13.875 23.7031 13.875C27.1719 13.875 30.0625 16.7656 30.0625 20.2344V28.9062Z" fill="#202222"/>
</svg>
