<svg width="35" height="32" viewBox="0 0 35 32" fill="none" xmlns="http://www.w3.org/2000/svg">
<path d="M1.13074 31.8081H5.65756C6.28209 31.8081 6.78831 31.3018 6.78831 30.6773V10.8907C6.78831 10.2661 6.28209 9.75992 5.65756 9.75992H1.13074C0.506158 9.75992 0 10.2661 0 10.8907V30.6773C0 31.3018 0.506158 31.8081 1.13074 31.8081Z" fill="#0F1108"/>
<path d="M1.13074 6.28133H5.65756C6.28209 6.28133 6.78831 5.77511 6.78831 5.15059V1.13074C6.78831 0.506221 6.28209 0 5.65756 0H1.13074C0.506158 0 0 0.506221 0 1.13074V5.15059C0 5.77511 0.506158 6.28133 1.13074 6.28133Z" fill="#0F1108"/>
<path d="M33.118 12.0549C32.4819 11.2176 31.5439 10.529 30.3037 9.98931C29.0635 9.44995 27.6945 9.18008 26.1967 9.18008C23.1561 9.18008 20.5796 10.3405 18.4674 12.6618C18.0471 13.1236 17.7415 13.0227 17.7415 12.3981V10.8907C17.7415 10.2661 17.2352 9.75994 16.6107 9.75994H12.567C11.9424 9.75994 11.4362 10.2661 11.4362 10.8907V30.6773C11.4362 31.3018 11.9424 31.8081 12.567 31.8081H17.0938C17.7184 31.8081 18.2245 31.3018 18.2245 30.6773V23.796C18.2245 20.9293 18.3976 18.9643 18.7438 17.9014C19.0899 16.8385 19.7303 15.985 20.6644 15.3408C21.5986 14.6965 22.6534 14.3743 23.8292 14.3743C24.7472 14.3743 25.5324 14.5998 26.1848 15.0509C26.8371 15.5019 27.3082 16.1338 27.5981 16.9473C27.8881 17.7606 28.033 19.5523 28.033 22.3225V30.6773C28.033 31.3018 28.5392 31.8081 29.1637 31.8081H33.6905C34.315 31.8081 34.8212 31.3018 34.8212 30.6773V19.4717C34.8212 17.4909 34.6963 15.9688 34.447 14.9059C34.1976 13.843 33.7545 12.8927 33.118 12.0549Z" fill="#0F1108"/>
</svg>
