<svg width="29" height="32" viewBox="0 0 29 32" fill="none" xmlns="http://www.w3.org/2000/svg">
<path d="M1.86157 13.4649C1.86157 8.16905 1.86157 5.52114 3.50678 3.87592C5.152 2.23071 7.79991 2.23071 13.0958 2.23071H15.9043C21.2001 2.23071 23.8481 2.23071 25.4932 3.87592C27.1385 5.52114 27.1385 8.16905 27.1385 13.4649V19.082C27.1385 24.3778 27.1385 27.0258 25.4932 28.6709C23.8481 30.3162 21.2001 30.3162 15.9043 30.3162H13.0958C7.79991 30.3162 5.152 30.3162 3.50678 28.6709C1.86157 27.0258 1.86157 24.3778 1.86157 19.082V13.4649Z" stroke="#0F1108" stroke-width="2.5"/>
<path d="M8.88306 16.2734H20.1172" stroke="#0F1108" stroke-width="2.5" stroke-linecap="round"/>
<path d="M8.88306 10.6564H20.1172" stroke="#0F1108" stroke-width="2.5" stroke-linecap="round"/>
<path d="M8.88306 21.8905H15.9044" stroke="#0F1108" stroke-width="2.5" stroke-linecap="round"/>
</svg>
