<svg width="22" height="22" viewBox="0 0 22 22" fill="none" xmlns="http://www.w3.org/2000/svg">
<path fill-rule="evenodd" clip-rule="evenodd" d="M17.8387 0.779503C16.7233 -0.711499 14.3568 0.079383 14.3568 1.94312V3.81455C10.7486 3.77102 8.28036 5.03514 6.63624 6.80052C4.87867 8.68771 4.15577 11.0471 3.85284 12.6604C3.70139 13.4669 4.22048 14.0521 4.76602 14.2542C5.28719 14.4473 5.9836 14.3646 6.44834 13.8231C7.76739 12.2865 10.33 10.1418 14.3568 10.2818V12.6805C14.3568 14.5443 16.7233 15.3351 17.8387 13.8441L21.4198 9.05724C22.1935 8.02292 22.1935 6.60072 21.4198 5.5664L17.8387 0.779503ZM6.20027 11.3182C7.92698 9.78234 10.4056 8.34101 14.3568 8.34101H15.3242C15.8585 8.34101 16.2915 8.77519 16.2915 9.31075L16.2913 12.6805L19.8722 7.89363C20.1302 7.54885 20.1302 7.07479 19.8722 6.73001L16.2913 1.94312V4.78425C16.2913 5.31979 15.8583 5.75393 15.324 5.75393H14.3568C10.0046 5.75393 8.05014 8.12406 8.05014 8.12406C7.15032 9.09023 6.57124 10.2385 6.20027 11.3182Z" fill="#9765FD"/>
<path d="M5.76219 0.978516H2.8811C1.28992 0.978516 0 2.26191 0 3.84508V19.1334C0 20.7166 1.28992 22 2.8811 22H18.247C19.8382 22 21.128 20.7166 21.128 19.1334V16.2668C21.128 15.7391 20.6981 15.3113 20.1677 15.3113C19.6373 15.3113 19.2073 15.7391 19.2073 16.2668V19.1334C19.2073 19.6611 18.7774 20.0889 18.247 20.0889H2.8811C2.35071 20.0889 1.92073 19.6611 1.92073 19.1334V3.84508C1.92073 3.31735 2.35071 2.88956 2.8811 2.88956H5.76219C6.29259 2.88956 6.72256 2.46175 6.72256 1.93404C6.72256 1.40631 6.29259 0.978516 5.76219 0.978516Z" fill="#9765FD"/>
</svg>
